Coordinates
version=1
nRows=24
nColumns=24
inDegrees=yes

Units are S.I. units (second, meters, Newtons, ...)
Angles are in degrees.

endheader
time	pelvis_tilt	pelvis_list	pelvis_rotation	pelvis_tx	pelvis_ty	pelvis_tz	hip_flexion_r	hip_adduction_r	hip_rotation_r	knee_angle_r	ankle_angle_r	subtalar_angle_r	mtp_angle_r	hip_flexion_l	hip_adduction_l	hip_rotation_l	knee_angle_l	ankle_angle_l	subtalar_angle_l	mtp_angle_l	lumbar_extension	lumbar_bending	lumbar_rotation
      0.91200000	     -5.05319516	     -3.25595399	      5.93261596	     -0.32906766	      0.90336374	      0.30179114	     17.51127405	      9.00597440	     -4.69224013	    -24.39034223	     10.68386384	     -0.84233194	      3.88891732	     18.74918295	     -6.80234193	     -4.83850447	    -65.60042027	      5.81538172	     -2.62323575	      6.24327888	     -0.38155985	      6.69432189	     -2.85828582
      0.91616667	     -5.02391938	     -3.13764880	      5.70803650	     -0.32426001	      0.90448476	      0.30230492	     16.87012162	      9.00408487	     -4.45128309	    -23.87982704	     10.65357415	     -0.74804354	      3.96164166	     19.25622326	     -6.67166827	     -5.13008700	    -65.04112887	      6.18537839	     -2.62372289	      6.14827288	     -0.45520682	      6.58182249	     -2.58463321
      0.92033333	     -5.02786548	     -3.01346607	      5.46089477	     -0.31948261	      0.90550396	      0.30283822	     16.28411030	      8.98639564	     -4.21961410	    -23.40591247	     10.61359968	     -0.60370608	      3.98848225	     19.78630127	     -6.54030341	     -5.44997716	    -64.44158747	      6.52774154	     -2.69057365	      6.11323294	     -0.47322333	      6.45543336	     -2.45958719
      0.92450000	     -4.94333179	     -2.89438092	      5.21711454	     -0.31469114	      0.90664444	      0.30340179	     15.56979040	      8.99174982	     -3.93534624	    -22.86192860	     10.59426457	     -0.55470746	      4.05694078	     20.20015299	     -6.42796323	     -5.75525433	    -63.77912051	      6.80246063	     -2.72408630	      6.01478325	     -0.63646136	      6.34708615	     -2.03589647
      0.92866667	     -4.90583646	     -2.76683676	      4.94471823	     -0.30993329	      0.90766033	      0.30398215	     14.93031856	      8.97834696	     -3.63954969	    -22.36689012	     10.55382161	     -0.46448211	      4.11451421	     20.64878453	     -6.31066754	     -6.09165772	    -63.07526021	      7.05729969	     -2.81948724	      5.92725092	     -0.73217398	      6.23766980	     -1.75279791
      0.93283333	     -4.85636314	     -2.64286716	      4.67209264	     -0.30517252	      0.90865346	      0.30456986	     14.27422331	      8.96329531	     -3.35560736	    -21.86021110	     10.52132007	     -0.37439076	      4.17144574	     21.07212848	     -6.20541456	     -6.43358908	    -62.32737921	      7.26737201	     -2.94760941	      5.83450135	     -0.82877093	      6.11814709	     -1.44525267
      0.93700000	     -4.81873613	     -2.53724340	      4.39167873	     -0.30042995	      0.90956813	      0.30518750	     13.63306078	      8.96594765	     -3.05952191	    -21.34648862	     10.44851587	     -0.29972993	      4.27636309	     21.50424096	     -6.13008018	     -6.77888835	    -61.55532914	      7.45853257	     -3.08746396	      5.65508751	     -0.91826550	      6.00662276	     -1.02510724
      0.94116667	     -4.76510721	     -2.39836198	      4.08910894	     -0.29569608	      0.91047945	      0.30579825	     12.98943417	      8.92590887	     -2.75522213	    -20.87601837	     10.44003678	     -0.19713437	      4.32110850	     21.88436237	     -6.02238075	     -7.15293806	    -60.70985842	      7.58335066	     -3.30185701	      5.57230223	     -1.02301100	      5.87790964	     -0.83026906
      0.94533333	     -4.71614136	     -2.29182109	      3.79277965	     -0.29098083	      0.91132233	      0.30643087	     12.33903663	      8.91855605	     -2.44554526	    -20.36111427	     10.37914278	     -0.12045374	      4.42364379	     22.27411802	     -5.95493577	     -7.50900705	    -59.85123470	      7.70071724	     -3.51491429	      5.37783232	     -1.12663015	      5.76245498	     -0.36134275
      0.94950000	     -4.66837584	     -2.15953916	      3.47230215	     -0.28628125	      0.91212010	      0.30706798	     11.71489513	      8.87494153	     -2.13377392	    -19.90760782	     10.36714509	     -0.00480718	      4.46018600	     22.63598680	     -5.86791848	     -7.89923536	    -58.93113663	      7.75487706	     -3.77935095	      5.30078873	     -1.22495410	      5.63028515	     -0.18841110
      0.95366667	     -4.61187687	     -2.04140587	      3.16463198	     -0.28157908	      0.91288360	      0.30768587	     11.07132613	      8.83927481	     -1.83171527	    -19.42562198	     10.34128726	      0.09646498	      4.49941589	     22.98104518	     -5.79170496	     -8.26570544	    -57.97922935	      7.78076725	     -4.07226672	      5.21379917	     -1.33222441	      5.51798163	      0.11579063
      0.95783333	     -4.55470889	     -1.92743058	      2.84867861	     -0.27689421	      0.91359412	      0.30831110	     10.43337156	      8.80234052	     -1.52745823	    -18.95143706	     10.31604310	      0.19146606	      4.54203975	     23.31293148	     -5.72538097	     -8.63720336	    -56.99231085	      7.77430859	     -4.38633339	      5.11742005	     -1.44488793	      5.40185091	      0.46196574
      0.96200000	     -4.51216067	     -1.83142027	      2.54634018	     -0.27222545	      0.91421975	      0.30892140	      9.80754263	      8.77725119	     -1.22625870	    -18.46036558	     10.28577025	      0.28426190	      4.63915987	     23.65948343	     -5.66870705	     -8.97003979	    -55.98551346	      7.76952280	     -4.70099174	      4.90747449	     -1.54501661	      5.29355124	      0.99100059
      0.96616667	     -4.45288577	     -1.72354970	      2.23656924	     -0.26754524	      0.91482625	      0.30952562	      9.17396110	      8.73024885	     -0.94782077	    -17.99705260	     10.29897618	      0.38359996	      4.69854669	     23.96365098	     -5.60918153	     -9.33184075	    -54.92876418	      7.69952372	     -5.04461701	      4.77323067	     -1.64617293	      5.17044023	      1.24932684
      0.97033333	     -4.41374851	     -1.62530787	      1.89951250	     -0.26289188	      0.91534410	      0.31014820	      8.58002880	      8.68667112	     -0.65440528	    -17.56314057	     10.26371236	      0.52450291	      4.74014515	     24.27484411	     -5.57284133	     -9.71875291	    -53.84402132	      7.61398481	     -5.37010848	      4.67425286	     -1.73607956	      5.08590294	      1.50266293
      0.97450000	     -4.36674694	     -1.53539805	      1.58891153	     -0.25822573	      0.91582563	      0.31072221	      7.96570294	      8.64178490	     -0.38741480	    -17.10312254	     10.25569322	      0.65333723	      4.78643902	     24.56888241	     -5.52658132	    -10.05479700	    -52.72652627	      7.50698734	     -5.72500771	      4.56582639	     -1.82527353	      4.99447561	      1.83614257
      0.97866667	     -4.33566685	     -1.46471808	      1.28844326	     -0.25357550	      0.91621293	      0.31127551	      7.37174798	      8.60876744	     -0.13915753	    -16.64315224	     10.25738553	      0.79969361	      4.92052988	     24.87938639	     -5.49451523	    -10.36325954	    -51.59878144	      7.41524995	     -6.06670253	      4.27884267	     -1.89706563	      4.91592308	      2.38808658
      0.98283333	     -4.29245312	     -1.38257074	      0.97632289	     -0.24891709	      0.91657782	      0.31183371	      6.77533365	      8.55698372	      0.10855195	    -16.21013935	     10.26567353	      0.94192189	      4.96507174	     25.15063876	     -5.46040998	    -10.69991030	    -50.42228066	      7.25590800	     -6.36857123	      4.17679352	     -1.98269134	      4.83347248	      2.55104481
      0.98700000	     -4.24176283	     -1.31862737	      0.70006989	     -0.24424781	      0.91689512	      0.31232528	      6.15590463	      8.51391673	      0.31785817	    -15.74329107	     10.30454196	      1.09102212	      5.03758232	     25.41233258	     -5.41854225	    -10.96343276	    -49.22810856	      7.10778473	     -6.71259694	      4.02212047	     -2.07482736	      4.75632309	      2.92587892
      0.99116667	     -4.21637051	     -1.25984799	      0.38737997	     -0.23960324	      0.91711842	      0.31285597	      5.59011082	      8.47108402	      0.54013614	    -15.32755115	     10.29516929	      1.27211397	      5.08931518	     25.68247991	     -5.40619234	    -11.27687122	    -48.00805400	      6.93228104	     -6.97093326	      3.91126102	     -2.13559203	      4.71080823	      3.18110351
      0.99533333	     -4.18364431	     -1.21060842	      0.10003718	     -0.23493712	      0.91729920	      0.31333131	      5.00342495	      8.42916623	      0.73975890	    -14.88689186	     10.31468190	      1.45881707	      5.14262728	     25.93702486	     -5.38635791	    -11.54533652	    -46.76832149	      6.75181942	     -7.23009532	      3.80202970	     -2.20261081	      4.66326565	      3.48053735
      0.99950000	     -4.14855843	     -1.17065131	     -0.16104665	     -0.23026710	      0.91741921	      0.31375398	      4.41241727	      8.38894877	      0.90613625	    -14.44280905	     10.38664170	      1.65448875	      5.23553396	     26.18356142	     -5.35430533	    -11.75676851	    -45.51072281	      6.58418374	     -7.48905723	      3.62919029	     -2.27457574	      4.61947050	      3.89289644
      1.00366667	     -4.12485006	     -1.13711362	     -0.43646759	     -0.22560352	      0.91747331	      0.31418501	      3.84442968	      8.34998369	      1.07585546	    -14.01901982	     10.42658453	      1.86167912	      5.32152373	     26.42711958	     -5.34048600	    -11.98949333	    -44.23204466	      6.39120917	     -7.67474761	      3.47474760	     -2.33061001	      4.58842977	      4.18670247
      1.00783333	     -4.11170515	     -1.11220528	     -0.71528482	     -0.22093220	      0.91746127	      0.31459902	      3.29678867	      8.31327246	      1.23418157	    -13.61392104	     10.43228429	      2.07440640	      5.37484752	     26.66962766	     -5.34149606	    -12.23270929	    -42.93711819	      6.17517090	     -7.78725004	      3.38107393	     -2.37214425	      4.57695553	      4.39736801
